<svg xmlns="http://www.w3.org/2000/svg" version="1.1" xmlns:xlink="http://www.w3.org/1999/xlink" xmlns:svgjs="http://svgjs.dev/svgjs" width="1000" height="623" viewBox="0 0 1000 623"><g transform="matrix(1,0,0,1,-0.6060606060606233,0.2522267206477409)"><svg viewBox="0 0 396 247" data-background-color="#ffffff" preserveAspectRatio="xMidYMid meet" height="623" width="1000" xmlns="http://www.w3.org/2000/svg" xmlns:xlink="http://www.w3.org/1999/xlink"><g id="tight-bounds" transform="matrix(1,0,0,1,0.2400000000000091,-0.09999999999999432)"><svg viewBox="0 0 395.52 247.2" height="247.2" width="395.52"><g><svg></svg></g><g><svg viewBox="0 0 395.52 247.2" height="247.2" width="395.52"><g transform="matrix(1,0,0,1,75.54432,92.92937954542742)"><svg viewBox="0 0 244.43135999999998 61.34124090914514" height="61.34124090914514" width="244.43135999999998"><g><svg viewBox="0 0 245.65351679999995 61.64794711369086" height="61.34124090914514" width="244.43135999999998"><g><svg viewBox="0 0 245.65351679999995 61.64794711369086" height="61.64794711369086" width="245.65351679999995"><g id="textblocktransform"><svg viewBox="0 0 245.65351679999995 61.64794711369086" height="61.64794711369086" width="245.65351679999995" id="textblock"><g><rect width="245.65351679999995" height="2.493430317611501" x="0" y="30.58645295452712" fill="#0718c4" opacity="1" stroke-width="0" stroke="transparent" fill-opacity="1" class="rect-o-0" data-fill-palette-color="primary" rx="1%" id="o-0" data-palette-color="#0718c4"></rect></g><g transform="matrix(1,0,0,1,0.6110783999999825,0)"><svg viewBox="0 0 244.43135999999998 27.649165931162788" height="27.649165931162788" width="244.43135999999998"><g transform="matrix(1,0,0,1,0,0)"><svg width="244.43135999999998" viewBox="1.6100000143051147 -29.100000381469727 262.4300231933594 29.690000534057617" height="27.649165931162788" data-palette-color="#0718c4"><path d="M16.7 0L1.9 0 1.76-2.64 4.74-3.47Q4.83-3.66 4.91-4.76 4.98-5.86 5.03-7.47 5.08-9.08 5.08-10.89L5.08-10.89 5.13-17.97Q5.13-19.68 5.08-21.31 5.03-22.95 4.96-24.07 4.88-25.2 4.79-25.39L4.79-25.39 1.61-26.03 1.76-28.66 14.84-28.66Q21.24-28.66 24.32-26.49 27.39-24.32 27.39-20.21L27.39-20.21Q27.39-17.53 25.98-15.33 24.56-13.13 21.78-11.84 18.99-10.55 14.94-10.55L14.94-10.55Q14.21-10.55 13.4-10.64 12.6-10.74 11.87-10.89L11.87-10.89 11.87-14.5Q12.26-14.31 13.06-14.14 13.87-13.96 14.99-13.96L14.99-13.96Q17.14-13.96 18.29-15.43 19.43-16.89 19.43-19.53L19.43-19.53Q19.43-22.75 17.92-24.24 16.41-25.73 13.53-25.73L13.53-25.73 12.6-25.73Q12.6-25.34 12.57-24.44 12.55-23.54 12.55-21.97 12.55-20.41 12.55-17.97L12.55-17.97 12.6-10.89Q12.6-9.08 12.65-7.47 12.7-5.86 12.77-4.79 12.84-3.71 12.89-3.47L12.89-3.47 16.85-2.73 16.7 0ZM46.68 0.44L46.68 0.44Q42.14 0.44 38.57-1.42 35.01-3.27 32.96-6.52 30.91-9.77 30.91-13.92L30.91-13.92Q30.91-18.31 32.93-21.73 34.96-25.15 38.55-27.12 42.14-29.1 46.68-29.1L46.68-29.1Q51.17-29.1 54.56-27.29 57.96-25.49 59.89-22.24 61.81-18.99 61.81-14.79L61.81-14.79Q61.81-10.84 60.35-7.96 58.88-5.08 56.56-3.22 54.25-1.37 51.63-0.46 49.02 0.44 46.68 0.44ZM47.02-3.52L47.02-3.52Q49.12-3.52 50.51-4.66 51.9-5.81 52.56-8.03 53.22-10.25 53.22-13.48L53.22-13.48Q53.22-17.24 52.34-19.92 51.46-22.61 49.88-24.1 48.29-25.59 46.09-25.59L46.09-25.59Q43.06-25.59 41.31-22.92 39.55-20.26 39.55-15.48L39.55-15.48Q39.55-11.96 40.5-9.25 41.45-6.54 43.14-5.03 44.82-3.52 47.02-3.52ZM79.05 0L65.86 0 65.72-2.64 68.84-3.47Q68.84-3.76 68.87-4.64 68.89-5.52 68.92-6.69 68.94-7.86 68.96-9.03 68.99-10.21 68.99-11.13L68.99-11.13 68.99-17.58Q68.99-19.53 68.94-21.19 68.89-22.85 68.79-23.93 68.7-25 68.6-25.2L68.6-25.2 65.47-26.03 65.62-28.66 78.9-28.66Q84.81-28.66 87.62-26.86 90.42-25.05 90.42-21.09L90.42-21.09Q90.42-18.7 88.91-16.82 87.4-14.94 84.76-13.87 82.12-12.79 78.71-12.79L78.71-12.79 75.34-12.79 75.34-15.82 77.53-15.82Q79.78-15.82 81.2-17.33 82.61-18.85 82.61-21.24L82.61-21.24Q82.61-23.44 81.44-24.58 80.27-25.73 78.02-25.73L78.02-25.73 76.46-25.73Q76.46-25.59 76.44-24.78 76.41-23.97 76.39-22.78 76.36-21.58 76.36-20.26 76.36-18.95 76.36-17.82L76.36-17.82 76.36-11.13Q76.36-10.11 76.39-8.59 76.41-7.08 76.46-5.66 76.51-4.25 76.51-3.47L76.51-3.47 79.19-2.64 79.05 0ZM92.13 0.59L92.13 0.59Q89.2 0.59 86.91-0.32 84.61-1.22 82.91-3.03 81.2-4.83 79.98-7.57L79.98-7.57 77.44-13.57 83.39-14.99 89.4-6.79Q90.28-5.62 91.23-4.69 92.18-3.76 93.26-3.13 94.33-2.49 95.55-2.15L95.55-2.15 95.5 0.29Q94.62 0.49 93.79 0.54 92.96 0.59 92.13 0.59ZM122.26-28.96L122.26-28.96 123.43-20.02 120.11-19.78 118.21-25.44Q117.72-25.54 117.13-25.56 116.55-25.59 115.81-25.59L115.81-25.59 114.25-25.59Q113.81-25.59 113.35-25.59 112.88-25.59 112.69-25.49L112.69-25.49Q112.69-25.2 112.66-23.66 112.64-22.12 112.61-19.97 112.59-17.82 112.59-15.53L112.59-15.53 112.59-11.67Q112.59-9.08 112.64-6.88 112.69-4.69 112.74-3.47L112.74-3.47 117.03-2.73 116.89 0 100.72 0 100.58-2.73 104.88-3.47Q104.97-4.69 105.02-6.88 105.07-9.08 105.07-11.67L105.07-11.67 105.07-15.53Q105.07-17.82 105.05-19.97 105.02-22.12 105-23.66 104.97-25.2 104.92-25.49L104.92-25.49Q104.78-25.59 104.31-25.59 103.85-25.59 103.41-25.59L103.41-25.59 101.8-25.59Q101.07-25.59 100.41-25.56 99.75-25.54 99.26-25.44L99.26-25.44 97.5-19.68 94.18-19.97 95.16-28.96Q95.7-28.91 96.67-28.88 97.65-28.86 98.8-28.81 99.94-28.76 101.02-28.71 102.09-28.66 102.78-28.66L102.78-28.66 114.69-28.66Q115.37-28.66 116.45-28.71 117.52-28.76 118.67-28.81 119.82-28.86 120.79-28.88 121.77-28.91 122.26-28.96ZM140.91 0L126.21 0 126.06-2.64 129.09-3.47Q129.14-3.66 129.21-4.79 129.29-5.91 129.34-7.59 129.38-9.28 129.38-11.13L129.38-11.13 129.43-17.33Q129.43-19.38 129.38-21.09 129.34-22.8 129.26-23.93 129.19-25.05 129.14-25.2L129.14-25.2 125.97-26.03 126.11-28.66 140.37-28.66Q141.54-28.66 143.18-28.71 144.81-28.76 146.35-28.83 147.89-28.91 148.72-28.96L148.72-28.96 150.14-21.44 147.11-21 145.2-25.39Q144.47-25.54 143.96-25.59 143.45-25.63 142.86-25.63L142.86-25.63 139.74-25.63Q138.86-25.63 138.08-25.56 137.29-25.49 136.76-25.39L136.76-25.39Q136.76-25.1 136.76-24.9 136.76-24.71 136.76-24.19 136.76-23.68 136.76-22.61 136.76-21.53 136.76-19.58L136.76-19.58 136.81-7.96Q136.81-7.47 136.88-6.49 136.95-5.52 137-4.59 137.05-3.66 137.1-3.47L137.1-3.47 141.05-2.73 140.91 0ZM146.47-9.08L143.45-9.08 142.96-12.55Q142.28-12.65 141.47-12.67 140.66-12.7 140.03-12.7L140.03-12.7 137.69-12.7Q136.71-12.7 135.93-12.62 135.15-12.55 134.71-12.5L134.71-12.5 134.71-16.26Q135.2-16.21 135.98-16.14 136.76-16.06 137.69-16.06L137.69-16.06 140.03-16.06Q141.01-16.06 141.81-16.11 142.62-16.16 142.96-16.21L142.96-16.21 143.45-19.38 146.47-19.38 146.47-9.08ZM168.59 0.44L168.59 0.44Q164.05 0.44 160.49-1.42 156.92-3.27 154.87-6.52 152.82-9.77 152.82-13.92L152.82-13.92Q152.82-18.31 154.85-21.73 156.87-25.15 160.46-27.12 164.05-29.1 168.59-29.1L168.59-29.1Q173.08-29.1 176.48-27.29 179.87-25.49 181.8-22.24 183.73-18.99 183.73-14.79L183.73-14.79Q183.73-10.84 182.26-7.96 180.8-5.08 178.48-3.22 176.16-1.37 173.55-0.46 170.93 0.44 168.59 0.44ZM168.93-3.52L168.93-3.52Q171.03-3.52 172.42-4.66 173.82-5.81 174.47-8.03 175.13-10.25 175.13-13.48L175.13-13.48Q175.13-17.24 174.26-19.92 173.38-22.61 171.79-24.1 170.2-25.59 168.01-25.59L168.01-25.59Q164.98-25.59 163.22-22.92 161.46-20.26 161.46-15.48L161.46-15.48Q161.46-11.96 162.41-9.25 163.37-6.54 165.05-5.03 166.74-3.52 168.93-3.52ZM213.22-8.84L210.68 0.34Q209.31 0.24 207.6 0.15 205.89 0.05 204.4 0.02 202.91 0 202.04 0L202.04 0 187.53 0 187.39-2.64 190.56-3.47Q190.66-3.71 190.73-4.91 190.81-6.1 190.83-7.76 190.85-9.42 190.85-11.13L190.85-11.13 190.85-17.58Q190.85-19.38 190.83-21.02 190.81-22.66 190.73-23.8 190.66-24.95 190.56-25.2L190.56-25.2 187.39-26.03 187.53-28.66 202.57-28.66 202.72-25.93 198.67-25.15Q198.62-25 198.52-23.9 198.42-22.8 198.37-21.14 198.32-19.48 198.32-17.58L198.32-17.58 198.32-11.13Q198.32-8.11 198.37-6.45 198.42-4.79 198.57-4.1L198.57-4.1Q199.45-3.96 200.38-3.91 201.3-3.86 202.62-3.86L202.62-3.86 204.04-3.86Q204.97-3.86 205.82-3.98 206.67-4.1 207.11-4.2L207.11-4.2 209.9-9.67 213.22-8.84ZM229.28 0L215.17 0 215.02-2.64 218.2-3.47Q218.29-3.71 218.37-4.79 218.44-5.86 218.49-7.54 218.54-9.23 218.54-11.13L218.54-11.13 218.54-17.58Q218.54-19.53 218.49-21.22 218.44-22.9 218.37-24 218.29-25.1 218.2-25.24L218.2-25.24 215.02-26.03 215.17-28.66 229.28-28.66 229.43-26.03 226.3-25.24Q226.2-25 226.13-23.85 226.06-22.71 226.01-21.04 225.96-19.38 225.96-17.58L225.96-17.58 225.96-11.13Q225.96-9.38 226.01-7.71 226.06-6.05 226.13-4.91 226.2-3.76 226.3-3.47L226.3-3.47 229.43-2.64 229.28 0ZM248.91 0.44L248.91 0.44Q244.36 0.44 240.8-1.42 237.24-3.27 235.19-6.52 233.13-9.77 233.13-13.92L233.13-13.92Q233.13-18.31 235.16-21.73 237.19-25.15 240.78-27.12 244.36-29.1 248.91-29.1L248.91-29.1Q253.4-29.1 256.79-27.29 260.19-25.49 262.11-22.24 264.04-18.99 264.04-14.79L264.04-14.79Q264.04-10.84 262.58-7.96 261.11-5.08 258.79-3.22 256.47-1.37 253.86-0.46 251.25 0.44 248.91 0.44ZM249.25-3.52L249.25-3.52Q251.35-3.52 252.74-4.66 254.13-5.81 254.79-8.03 255.45-10.25 255.45-13.48L255.45-13.48Q255.45-17.24 254.57-19.92 253.69-22.61 252.1-24.1 250.52-25.59 248.32-25.59L248.32-25.59Q245.29-25.59 243.53-22.92 241.78-20.26 241.78-15.48L241.78-15.48Q241.78-11.96 242.73-9.25 243.68-6.54 245.37-5.03 247.05-3.52 249.25-3.52Z" opacity="1" transform="matrix(1,0,0,1,0,0)" fill="#0718c4" class="wordmark-text-0" data-fill-palette-color="primary" id="text-0"></path></svg></g></svg></g><g transform="matrix(1,0,0,1,0,36.01717029550296)"><svg viewBox="0 0 244.43135999999998 25.630776818187904" height="25.630776818187904" width="244.43135999999998"><g transform="matrix(1,0,0,1,0,0)"><svg width="244.43135999999998" viewBox="-1.2470588684082031 -36.95000076293945 442.9770812988281 46.45000076293945" height="25.630776818187904" data-palette-color="#77d4fc"><path d="M38.2-23.15Q37.4-20.25 35.2-18.63 33-17 29.65-16.6L29.65-16.6Q32.05-16.4 33.25-15.2 34.45-14 34.45-12.05L34.45-12.05Q34.45-11.3 34.2-10.2L34.2-10.2 33.65-7.75Q33.55-7.25 33.55-7.05L33.55-7.05Q33.55-6.4 33.85-6.08 34.15-5.75 34.7-5.75L34.7-5.75Q35.75-5.75 36.23-5.45 36.7-5.15 36.55-4.35L36.55-4.35Q36.35-3.2 35.35-2.1 34.35-1 32.52-0.28 30.7 0.45 28.1 0.45L28.1 0.45Q24.8 0.45 22.85-1.03 20.9-2.5 20.9-5.25L20.9-5.25Q20.9-6.3 21.2-7.5L21.2-7.5 22-10.7Q22.2-11.35 22.2-12.05L22.2-12.05Q22.2-13.2 21.43-13.7 20.65-14.2 18.95-14.2L18.95-14.2 17.05-14.2 14.75-5.9Q14.65-5.6 14.65-5.15L14.65-5.15Q14.65-4.45 15-3.95 15.35-3.45 15.95-2.9L15.95-2.9Q16.4-2.55 16.65-2.23 16.9-1.9 16.9-1.55L16.9-1.55Q16.9-0.7 16.1-0.35 15.3 0 13.75 0L13.75 0 1.2 0Q-0.1 0-0.75-0.48-1.4-0.95-1.2-1.8L-1.2-1.8Q-1.1-2.25-0.83-2.53-0.55-2.8 0-3.15L0-3.15Q0.85-3.65 1.35-4.2 1.85-4.75 2.15-5.9L2.15-5.9 8.25-27.45Q8.45-28.1 8.45-28.7L8.45-28.7Q8.45-29.25 8.28-29.63 8.1-30 7.8-30.5L7.8-30.5Q7.35-31.15 7.35-31.55L7.35-31.55Q7.35-31.7 7.45-32.1L7.45-32.1Q7.65-32.75 8.33-33.02 9-33.3 10.4-33.3L10.4-33.3 27.15-33.3Q30.6-33.3 33.18-32.25 35.75-31.2 37.13-29.38 38.5-27.55 38.5-25.25L38.5-25.25Q38.5-24.2 38.2-23.15L38.2-23.15ZM25.4-23.65Q25.65-24.8 25.65-25.4L25.65-25.4Q25.65-28.05 22.75-28.05L22.75-28.05 20.65-28.05 18.45-19.2 20.55-19.2Q22.5-19.2 23.63-20.15 24.75-21.1 25.4-23.65L25.4-23.65ZM109.3-26.45Q116.1-26.45 119.32-23.7 122.55-20.95 122.55-16.5L122.55-16.5Q122.55-15 122.15-13.15L122.15-13.15Q121.2-9.05 118.6-5.98 116-2.9 112.22-1.23 108.45 0.45 104.05 0.45L104.05 0.45Q97.1 0.45 93.77-2.33 90.45-5.1 90.45-9.7L90.45-9.7Q90.45-11.25 90.85-13.15L90.85-13.15Q91.8-17.05 94.47-20.08 97.15-23.1 101.02-24.78 104.9-26.45 109.3-26.45L109.3-26.45ZM109.15-22Q108.1-22 106.92-20.13 105.75-18.25 104.15-13.05L104.15-13.05Q102.55-7.85 102.55-5.75L102.55-5.75Q102.55-4.65 102.9-4.28 103.25-3.9 103.85-3.9L103.85-3.9Q104.9-3.8 106.02-5.7 107.15-7.6 108.85-13.1L108.85-13.1Q110.4-17.95 110.4-20.15L110.4-20.15Q110.4-21.2 110.07-21.6 109.75-22 109.15-22L109.15-22ZM208.74-16.75L205.69-6.9Q205.59-6.7 205.59-6.3L205.59-6.3Q205.59-5.95 205.77-5.75 205.94-5.55 206.24-5.55L206.24-5.55Q206.84-5.55 207.27-6.08 207.69-6.6 207.84-6.6L207.84-6.6Q208.09-6.6 208.24-6.28 208.39-5.95 208.39-5.5L208.39-5.5Q208.44-4.05 207.44-2.68 206.44-1.3 204.52-0.43 202.59 0.45 199.89 0.45L199.89 0.45Q196.59 0.45 194.64-1.07 192.69-2.6 192.64-5.15L192.64-5.15Q192.64-7 193.54-9.3L193.54-9.3 196.29-16.5Q196.54-17.15 196.54-17.55L196.54-17.55Q196.54-18.2 196.12-18.57 195.69-18.95 195.09-18.95L195.09-18.95Q193.99-18.95 192.99-17.93 191.99-16.9 191.54-15.4L191.54-15.4 188.44-5.2Q188.24-4.65 188.24-4.15L188.24-4.15Q188.24-3.55 188.49-3.18 188.74-2.8 189.19-2.4L189.19-2.4Q189.54-2.1 189.69-1.85 189.84-1.6 189.74-1.25L189.74-1.25Q189.54-0.6 188.79-0.3 188.04 0 186.44 0L186.44 0 175.04 0Q173.74 0 173.17-0.43 172.59-0.85 172.74-1.55L172.74-1.55Q172.94-2.15 173.79-2.6L173.79-2.6Q174.54-3 175.04-3.55 175.54-4.1 175.89-5.3L175.89-5.3 180.34-19.75Q180.44-20 180.44-20.45L180.44-20.45Q180.44-21 180.22-21.3 179.99-21.6 179.49-22.05L179.49-22.05Q178.99-22.45 178.79-22.75 178.59-23.05 178.74-23.55L178.74-23.55Q179.04-24.7 181.89-25.58 184.74-26.45 187.84-26.45L187.84-26.45Q190.34-26.45 191.79-25.08 193.24-23.7 193.09-21.25L193.09-21.25Q195.14-24.2 197.44-25.33 199.74-26.45 202.44-26.45L202.44-26.45Q205.49-26.45 207.37-24.6 209.24-22.75 209.24-19.8L209.24-19.8Q209.24-18.25 208.74-16.75L208.74-16.75ZM289.04-26.45Q291.24-26.45 292.56-24.68 293.89-22.9 293.89-19.85L293.89-19.85Q293.89-17.2 292.94-14.15L292.94-14.15Q291.09-8 287.01-2.55 282.94 2.9 277.66 6.2 272.39 9.5 267.14 9.5L267.14 9.5Q264.54 9.5 262.66 8.6 260.79 7.7 259.81 6.2 258.84 4.7 258.84 3L258.84 3Q258.84 2.25 259.09 1.35L259.09 1.35Q259.54-0.05 260.59-0.8 261.64-1.55 263.09-1.55L263.09-1.55Q265.39-1.55 266.86 0.03 268.34 1.6 268.74 4.35L268.74 4.35Q271.94 4.2 274.64 1.6L274.64 1.6Q272.09 1.15 270.86-0.13 269.64-1.4 269.19-4.1L269.19-4.1 267.19-16.35Q267.04-17.3 266.76-17.68 266.49-18.05 266.04-18.05L266.04-18.05Q265.69-18.05 265.21-17.7 264.74-17.35 264.54-17.35L264.54-17.35Q264.14-17.35 264.14-18.2L264.14-18.2Q264.14-18.9 264.39-19.7L264.39-19.7Q265.29-22.55 267.74-24.53 270.19-26.5 273.44-26.5L273.44-26.5Q276.64-26.5 278.16-24.6 279.69-22.7 280.14-18.75L280.14-18.75 281.64-7.75Q281.79-6.5 282.54-6.5L282.54-6.5Q283.44-6.5 284.64-8.13 285.84-9.75 286.99-12.75L286.99-12.75Q285.49-14.1 284.69-15.85 283.89-17.6 283.89-19.6L283.89-19.6Q283.89-21.15 284.29-22.4L284.29-22.4Q284.89-24.4 286.16-25.43 287.44-26.45 289.04-26.45L289.04-26.45ZM441.23-16.75L438.18-6.9Q438.08-6.7 438.08-6.3L438.08-6.3Q438.08-5.95 438.25-5.75 438.43-5.55 438.73-5.55L438.73-5.55Q439.33-5.55 439.75-6.08 440.18-6.6 440.33-6.6L440.33-6.6Q440.58-6.6 440.73-6.28 440.88-5.95 440.88-5.5L440.88-5.5Q440.93-4.05 439.93-2.68 438.93-1.3 437-0.43 435.08 0.45 432.38 0.45L432.38 0.45Q429.08 0.45 427.13-1.07 425.18-2.6 425.13-5.15L425.13-5.15Q425.13-7 426.03-9.3L426.03-9.3 428.78-16.5Q429.03-17.15 429.03-17.55L429.03-17.55Q429.03-18.2 428.6-18.57 428.18-18.95 427.58-18.95L427.58-18.95Q426.63-18.95 425.65-18.07 424.68-17.2 424.08-15.25L424.08-15.25 424.08-15.35 420.93-5.2Q420.78-4.6 420.78-4.15L420.78-4.15Q420.78-3.5 421.03-3.13 421.28-2.75 421.73-2.4L421.73-2.4Q422.08-2.05 422.23-1.83 422.38-1.6 422.28-1.25L422.28-1.25Q422.03-0.6 421.28-0.3 420.53 0 418.98 0L418.98 0 407.58 0Q406.28 0 405.68-0.43 405.08-0.85 405.28-1.55L405.28-1.55Q405.48-2.15 406.33-2.6L406.33-2.6Q407.08-3 407.58-3.55 408.08-4.1 408.43-5.3L408.43-5.3 416.03-30.25Q416.18-30.7 416.18-31L416.18-31Q416.18-31.55 415.9-31.9 415.63-32.25 415.18-32.6L415.18-32.6Q414.68-33 414.45-33.3 414.23-33.6 414.38-34.1L414.38-34.1Q414.68-35.25 417.53-36.1 420.38-36.95 423.48-36.95L423.48-36.95Q426.38-36.95 427.75-35.85 429.13-34.75 429.13-32.85L429.13-32.85Q429.13-31.75 428.78-30.7L428.78-30.7 426.08-21.9Q428.03-24.45 430.2-25.45 432.38-26.45 434.93-26.45L434.93-26.45Q437.98-26.45 439.85-24.6 441.73-22.75 441.73-19.8L441.73-19.8Q441.73-18.25 441.23-16.75L441.23-16.75Z" opacity="1" transform="matrix(1,0,0,1,0,0)" fill="#77d4fc" class="slogan-text-1" data-fill-palette-color="secondary" id="text-1"></path></svg></g></svg></g></svg></g></svg></g></svg></g></svg></g><g><path d="M0 123.6c0-68.262 55.338-123.6 123.6-123.6 56.5 0 104.146 37.91 118.888 89.682l-1.291 0c-14.706-51.078-61.788-88.441-117.597-88.441-67.577 0-122.359 54.782-122.359 122.359 0 67.577 54.782 122.359 122.359 122.359 55.809 0 102.892-37.364 117.597-88.441h1.291c-14.742 51.771-62.388 89.682-118.888 89.682-68.262 0-123.6-55.338-123.6-123.6z" fill="#0718c4" stroke="transparent" data-fill-palette-color="tertiary"></path></g></svg></g><defs></defs></svg><rect width="395.52" height="247.2" fill="none" stroke="none" visibility="hidden"></rect></g></svg></g></svg>